<svg width="31" height="32" viewBox="0 0 31 32" fill="none" xmlns="http://www.w3.org/2000/svg">
<path d="M24.1421 23.9216H23.432V13.3313C23.432 8.93635 20.3462 5.3014 16.3314 4.69713V3.48859C16.3314 2.80022 15.8018 2.24268 15.1479 2.24268C14.4941 2.24268 13.9645 2.80022 13.9645 3.48859V4.69713C9.94966 5.3014 6.86385 8.93635 6.86385 13.3313V23.9216H6.15378C5.63011 23.9216 5.20703 24.367 5.20703 24.9183V25.9151C5.20703 26.0521 5.31354 26.1642 5.44372 26.1642H11.8343C11.8343 28.0892 13.3195 29.6528 15.1479 29.6528C16.9763 29.6528 18.4616 28.0892 18.4616 26.1642H24.8521C24.9823 26.1642 25.0888 26.0521 25.0888 25.9151V24.9183C25.0888 24.367 24.6657 23.9216 24.1421 23.9216ZM15.1479 27.6593C14.3639 27.6593 13.7278 26.9897 13.7278 26.1642H16.568C16.568 26.9897 15.932 27.6593 15.1479 27.6593Z" fill="white"/>
</svg>
