<svg width="37" height="37" viewBox="0 0 37 37" fill="none" xmlns="http://www.w3.org/2000/svg">
<path d="M29.7808 25.2892C28.8763 24.3841 27.8196 23.6454 26.6589 23.1068C28.2957 21.7807 29.3399 19.7573 29.3399 17.4882C29.3399 13.4846 26.0013 10.2002 21.9977 10.2616C18.0557 10.323 14.8796 13.5352 14.8796 17.4882C14.8796 19.7573 15.9274 21.7807 17.5606 23.1068C16.3997 23.645 15.3429 24.3838 14.4388 25.2892C12.4659 27.2657 11.3458 29.8745 11.2735 32.6567C11.2726 32.6953 11.2793 32.7336 11.2934 32.7695C11.3075 32.8055 11.3287 32.8382 11.3556 32.8658C11.3825 32.8934 11.4147 32.9153 11.4503 32.9303C11.4858 32.9453 11.524 32.953 11.5626 32.953H13.586C13.7414 32.953 13.8715 32.8301 13.8751 32.6748C13.9437 30.5791 14.7929 28.6171 16.2851 27.1284C17.0488 26.3607 17.9571 25.7521 18.9575 25.3378C19.9579 24.9235 21.0306 24.7117 22.1134 24.7147C24.3139 24.7147 26.3843 25.5711 27.9416 27.1284C29.4303 28.6171 30.2794 30.5791 30.3517 32.6748C30.3553 32.8301 30.4853 32.953 30.6407 32.953H32.6642C32.7027 32.953 32.7409 32.9453 32.7765 32.9303C32.812 32.9153 32.8442 32.8934 32.8711 32.8658C32.8981 32.8382 32.9192 32.8055 32.9333 32.7695C32.9474 32.7336 32.9542 32.6953 32.9532 32.6567C32.8809 29.8745 31.7608 27.2657 29.7808 25.2892ZM22.1134 22.1132C20.8776 22.1132 19.7142 21.6326 18.8434 20.7582C18.4063 20.3246 18.0611 19.8074 17.8283 19.2376C17.5955 18.6677 17.4799 18.0567 17.4884 17.4412C17.4992 16.256 17.9726 15.1106 18.8 14.2615C19.6672 13.3726 20.827 12.8776 22.0664 12.8632C23.2913 12.8523 24.4801 13.3293 25.3545 14.1856C26.2506 15.0636 26.742 16.238 26.742 17.4882C26.742 18.7239 26.2614 19.8838 25.387 20.7582C24.958 21.1892 24.4478 21.5309 23.8859 21.7635C23.324 21.9961 22.7215 22.1149 22.1134 22.1132ZM13.0621 18.4421C13.0296 18.1277 13.0115 17.8097 13.0115 17.4882C13.0115 16.9136 13.0657 16.3536 13.1669 15.808C13.1922 15.6779 13.1235 15.5442 13.0043 15.49C12.5129 15.2696 12.0612 14.9661 11.671 14.5831C11.2112 14.1372 10.8493 13.6004 10.6086 13.0069C10.3678 12.4134 10.2534 11.7762 10.2726 11.136C10.3052 9.97614 10.7713 8.87409 11.5843 8.04304C12.4768 7.12888 13.6764 6.63024 14.9518 6.6447C16.1045 6.65553 17.2174 7.09997 18.0593 7.88766C18.3447 8.15505 18.5904 8.45134 18.7964 8.7693C18.8686 8.88132 19.0096 8.92829 19.1324 8.88493C19.7684 8.66452 20.4404 8.50915 21.1306 8.43688C21.3329 8.4152 21.4485 8.19841 21.3582 8.01774C20.1839 5.6944 17.7847 4.09011 15.0097 4.04675C11.0025 3.98532 7.66386 7.26979 7.66386 11.2697C7.66386 13.5388 8.7081 15.5623 10.3449 16.8883C9.19589 17.4195 8.1372 18.153 7.21943 19.0708C5.23935 21.0472 4.11923 23.656 4.04697 26.4419C4.046 26.4804 4.05277 26.5188 4.06686 26.5547C4.08095 26.5906 4.10209 26.6233 4.12903 26.6509C4.15597 26.6786 4.18816 26.7005 4.22371 26.7155C4.25926 26.7305 4.29745 26.7382 4.33603 26.7382H6.36308C6.51845 26.7382 6.64853 26.6153 6.65214 26.4599C6.72079 24.3642 7.56991 22.4022 9.0622 20.9135C10.1245 19.8512 11.4253 19.1141 12.8453 18.7564C12.9862 18.7203 13.0802 18.5866 13.0621 18.4421Z" fill="#FFF4F4"/>
</svg>
