<svg width="24" height="24" viewBox="0 0 24 24" fill="none" xmlns="http://www.w3.org/2000/svg">
<path d="M16.9688 5.1163V3.30458C16.9688 3.14755 16.7883 3.06083 16.6664 3.15692L6.10081 11.4093C6.01105 11.4791 5.93841 11.5685 5.88844 11.6706C5.83847 11.7728 5.8125 11.885 5.8125 11.9987C5.8125 12.1124 5.83847 12.2247 5.88844 12.3268C5.93841 12.429 6.01105 12.5184 6.10081 12.5882L16.6664 20.8405C16.7907 20.9366 16.9688 20.8499 16.9688 20.6929V18.8811C16.9688 18.7663 16.9149 18.6561 16.8258 18.5858L8.38832 11.9999L16.8258 5.41161C16.9149 5.3413 16.9688 5.23114 16.9688 5.1163Z" fill="black"/>
</svg>
