<svg width="24" height="24" viewBox="0 0 24 24" fill="none" xmlns="http://www.w3.org/2000/svg">
<path d="M7.03122 18.8837V20.6954C7.03122 20.8525 7.21169 20.9392 7.33356 20.8431L17.8992 12.5907C17.989 12.5209 18.0616 12.4315 18.1116 12.3294C18.1615 12.2272 18.1875 12.115 18.1875 12.0013C18.1875 11.8876 18.1615 11.7753 18.1116 11.6732C18.0616 11.571 17.989 11.4816 17.8992 11.4118L7.33356 3.15948C7.20934 3.06339 7.03122 3.15011 7.03122 3.30714V5.11886C7.03122 5.2337 7.08512 5.34386 7.17418 5.41417L15.6117 12.0001L7.17418 18.5884C7.08512 18.6587 7.03122 18.7689 7.03122 18.8837Z" fill="black"/>
</svg>
