<svg width="141" height="23" viewBox="0 0 141 23" fill="none" xmlns="http://www.w3.org/2000/svg">
<path d="M24.23 11.83H29.87V11.98H28.34V12.58H25.91V13.18H25.7V13.33H25.97V13.93H24.32V14.08C24.32 14.16 24.31 14.24 24.29 14.32C24.29 14.38 24.29 14.45 24.29 14.53H25.49C25.49 14.61 25.48 14.69 25.46 14.77C25.46 14.83 25.46 14.9 25.46 14.98H24.83L24.74 15.58H25.22C25.2 15.62 25.19 15.67 25.19 15.73C25.19 15.79 25.18 15.84 25.16 15.88H25.52C25.5 15.98 25.48 16.08 25.46 16.18C25.44 16.28 25.42 16.38 25.4 16.48H25.43C25.41 16.58 25.39 16.68 25.37 16.78C25.35 16.88 25.32 16.98 25.28 17.08H25.4C25.4 17.1 25.38 17.15 25.34 17.23H25.49C25.45 17.33 25.41 17.43 25.37 17.53C25.33 17.63 25.29 17.73 25.25 17.83H25.16L24.92 18.28H24.86L24.59 18.73H24.68C24.62 18.81 24.56 18.89 24.5 18.97C24.44 19.03 24.39 19.1 24.35 19.18H23.99C23.91 19.3 23.83 19.4 23.75 19.48H23.48L23.03 19.93H23.09L22.91 20.08H20.93L20.75 20.23H20.93L20.54 20.53H22.37L22.13 20.68H23.66C23.48 20.78 23.3 20.88 23.12 20.98C22.94 21.08 22.75 21.18 22.55 21.28H21.95C21.89 21.3 21.83 21.32 21.77 21.34C21.71 21.36 21.65 21.39 21.59 21.43H22.76C22.68 21.45 22.61 21.47 22.55 21.49C22.49 21.51 22.43 21.54 22.37 21.58H18.41C18.27 21.64 18.11 21.7 17.93 21.76C17.77 21.8 17.6 21.84 17.42 21.88H20.45C20.19 21.94 19.92 21.99 19.64 22.03C19.38 22.09 19.11 22.14 18.83 22.18H15.2C14.88 22.22 14.54 22.25 14.18 22.27C13.84 22.29 13.5 22.3 13.16 22.3C12.8 22.3 12.45 22.29 12.11 22.27C11.77 22.25 11.43 22.22 11.09 22.18H14.72C14.44 22.14 14.16 22.09 13.88 22.03C13.62 21.99 13.36 21.94 13.1 21.88H10.07C9.89 21.84 9.72 21.8 9.56 21.76C9.4 21.7 9.24 21.64 9.08 21.58H13.01C12.95 21.54 12.88 21.51 12.8 21.49C12.74 21.47 12.68 21.45 12.62 21.43H11.45L11.12 21.28H11.75C11.55 21.18 11.36 21.08 11.18 20.98C11 20.88 10.82 20.78 10.64 20.68H9.14C9.1 20.64 9.06 20.61 9.02 20.59C9 20.57 8.97 20.55 8.93 20.53H7.1C7.02 20.49 6.95 20.44 6.89 20.38C6.83 20.32 6.77 20.27 6.71 20.23H6.53L6.35 20.08H8.33L8.15 19.93H8.12L7.67 19.48H7.97L7.7 19.18H8.03L7.73 18.73H7.64L7.37 18.28H7.43C7.39 18.2 7.35 18.13 7.31 18.07C7.29 17.99 7.26 17.91 7.22 17.83H7.28C7.24 17.73 7.2 17.63 7.16 17.53C7.12 17.43 7.08 17.33 7.04 17.23H6.92L6.86 17.08H6.74C6.66 16.9 6.6 16.7 6.56 16.48H6.5C6.48 16.38 6.46 16.28 6.44 16.18C6.42 16.08 6.4 15.98 6.38 15.88H6.53C6.51 15.84 6.5 15.79 6.5 15.73C6.5 15.67 6.49 15.62 6.47 15.58H6.68L6.62 14.98H6.68C6.66 14.9 6.65 14.83 6.65 14.77C6.65 14.69 6.65 14.61 6.65 14.53H6.41V13.93H5.09V13.33H3.98V13.18H4.94V12.58H7.46V11.98H10.55V11.83H8.12V11.38H7.25V10.93H6.2V10.48H4.94V9.88H6.2V8.83H6.53V8.53H6.68V8.38H6.77V7.78H6.5V7.48H6.65V7.33H6.2V6.73H5.87V6.43H3.56V6.13H0.86V5.83H8.24V5.68H6.05V5.08H6.56V4.78H6.23V4.33H9.5V3.73H4.61V3.58H7.97V3.28H6.32V2.98H5.63V2.68H7.85V2.08H6.53V1.93H6.47V1.81C6.47 1.65 6.49 1.54 6.53 1.48H6.35C6.49 1.16 6.74 0.999999 7.1 0.999999H12.98C13.32 0.999999 13.56 1.16 13.7 1.48H13.88C13.94 1.56 13.97 1.67 13.97 1.81V1.93H14.03V2.08H15.35V2.68H13.13V2.98H13.82V3.28H15.47V3.58H12.11V3.73H17V4.33H13.73V4.78H14.06V5.08H13.55V5.68H18.14V5.08H18.41V4.78H19.82V4.33H22.16V3.73H19.64V3.58H17.66V3.28H18.11V2.98H20.48V2.68H19.04V2.08H18.38V1.93H17.75V1.81C17.75 1.65 17.77 1.54 17.81 1.48H18.47C18.61 1.16 18.86 0.999999 19.22 0.999999H25.1C25.46 0.999999 25.71 1.16 25.85 1.48H25.16C25.22 1.56 25.25 1.67 25.25 1.81V1.93H25.88V2.08H26.54V2.68H27.98V2.98H25.61V3.28H25.16V3.58H27.14V3.73H29.66V4.33H27.32V4.78H25.91V5.08H25.64V5.68H22.52V5.83H25.67V6.13H24.14V6.43H22.04V6.73H24.23V7.33H25.43V7.48H26.15V7.78H26.27V8.38H25.91V8.53H25.88V8.83H26.12V9.43H26.48V9.88H26.57V10.48H24.17V10.93H25.25V11.38H24.23V11.83ZM14.75 11.38H15.62V11.83H16.73V11.38H17.75V10.93H16.67V10.48H19.07V9.88H18.98V9.43H18.62V8.83H18.38V8.53H18.41V8.38H18.77V7.78H18.65V7.48H17.93V7.33H16.73V6.73H14.54V6.43H16.64V6.13H18.17V5.83H8.36V6.13H11.06V6.43H13.37V6.73H13.7V7.33H14.15V7.48H14V7.78H14.27V8.38H14.18V8.53H14.03V8.83H13.7V9.88H12.44V10.48H13.7V10.93H14.75V11.38ZM20.84 11.98H22.37V11.83H18.05V11.98H14.96V12.58H12.44V13.18H11.48V13.33H12.59V13.93H13.91V13.96C13.91 14.06 13.91 14.16 13.91 14.26C13.91 14.34 13.92 14.43 13.94 14.53H14.18L14.27 14.98H14.24C14.28 15.18 14.39 15.38 14.57 15.58H14.36C14.44 15.7 14.54 15.8 14.66 15.88H14.51C14.85 16.14 15.33 16.27 15.95 16.27C16.55 16.27 17.02 16.14 17.36 15.88H17.03C17.15 15.8 17.25 15.7 17.33 15.58H16.88C17 15.42 17.11 15.22 17.21 14.98H17.84C17.88 14.9 17.9 14.83 17.9 14.77C17.92 14.69 17.94 14.61 17.96 14.53H16.76C16.78 14.43 16.79 14.34 16.79 14.26C16.81 14.16 16.82 14.06 16.82 13.96V13.93H18.47V13.33H18.2V13.18H18.41V12.58H20.84V11.98ZM46.2828 19.78H50.7528V20.38H48.2028V20.83H47.7828V21.13H45.9228V21.28H46.8528C46.8128 21.56 46.6928 21.76 46.4928 21.88H45.8328C45.7328 21.96 45.5828 22 45.3828 22H39.6528C39.4728 22 39.3328 21.96 39.2328 21.88H39.8928C39.6928 21.76 39.5728 21.56 39.5328 21.28H38.5728V21.13H40.4328V20.83H40.8528V20.38H43.4028V19.78H38.9328V19.18H40.0428V19.03H39.0528V18.73H39.0828V18.43H38.6028V17.83H38.9928V17.23H37.7628V16.63H38.0628V16.03H39.4428V15.43H39.1128V15.13H38.9928V14.98H38.8728V14.53H39.0528V14.38H39.2028V14.08H39.1728V13.78H39.0828V13.48H37.8228V13.18H38.1528V13.12C38.1528 13.04 38.1428 12.97 38.1228 12.91C38.1228 12.85 38.1228 12.79 38.1228 12.73H38.7228C38.7028 12.63 38.6828 12.55 38.6628 12.49C38.6428 12.41 38.6228 12.34 38.6028 12.28H39.1428C39.0228 12.02 38.8528 11.82 38.6328 11.68H37.6728C37.4528 11.54 37.1628 11.47 36.8028 11.47C36.4428 11.47 36.1628 11.54 35.9628 11.68H36.6828C36.5828 11.76 36.4828 11.85 36.3828 11.95C36.3028 12.03 36.2428 12.14 36.2028 12.28H35.3028C35.2628 12.36 35.2228 12.51 35.1828 12.73H35.3328C35.3128 12.81 35.3028 12.94 35.3028 13.12V13.18H35.0928V13.48H36.0828V13.78H36.1428V14.08H36.0528V14.38H35.8428V14.53H35.6328V14.98H35.9628V15.13H36.1728V15.43H36.0528V16.03H36.8328V16.63H35.9928V17.23H36.1428V17.83H35.8128V18.43H36.1728V18.73H36.1428V18.88H36.2328V19.03H37.8828V19.18H38.5728V19.78H36.7128V20.38H36.7728V20.83H35.6328V21.13H36.9228V21.28H37.2528C37.2128 21.56 37.0828 21.76 36.8628 21.88H35.4828C35.3828 21.96 35.2428 22 35.0628 22H29.3628C29.1828 22 29.0428 21.96 28.9428 21.88H30.3228C30.1028 21.76 29.9728 21.56 29.9328 21.28H29.6028V21.13H28.3128V20.83H29.4528V20.38H29.3928V19.78H31.2528V19.18H30.5628V19.03H28.9128V18.88H28.8228V18.73H28.8528V18.43H28.4928V17.83H28.8228V17.23H28.6728V16.63H29.5128V16.03H28.7328V15.43H28.8528V15.13H28.6428V14.98H28.3128V14.53H28.5228V14.38H28.7328V14.08H28.8228V13.78H28.7628V13.48H27.7728V13.18H27.9828V12.73H27.8328V12.28H28.7328V11.68H27.9828V11.23H28.6428V10.93H28.8228V10.48H28.7028V10.03H28.7328V9.28H28.8828V8.98H28.8528V8.53H29.2428V8.38H29.0028V7.93H29.3628V7.78H28.1628V7.48H29.0328V7.03H30.6528C30.6928 6.91 30.7328 6.81 30.7728 6.73H29.8128C29.9728 6.51 30.1928 6.4 30.4728 6.4H35.7228C36.0028 6.4 36.2228 6.51 36.3828 6.73H36.8928C37.3328 6.53 37.8028 6.38 38.3028 6.28C38.8028 6.16 39.3228 6.1 39.8628 6.1C40.8628 6.1 41.7628 6.31 42.5628 6.73H42.8928C42.9928 6.77 43.0828 6.82 43.1628 6.88C43.2428 6.92 43.3228 6.97 43.4028 7.03H42.9828C43.0828 7.09 43.1828 7.16 43.2828 7.24C43.3828 7.3 43.4728 7.38 43.5528 7.48H45.8928C46.0128 7.56 46.1128 7.66 46.1928 7.78H44.5428C44.5628 7.8 44.5828 7.82 44.6028 7.84C44.6228 7.86 44.6428 7.89 44.6628 7.93H45.0828C45.1428 8.01 45.2028 8.09 45.2628 8.17C45.3228 8.23 45.3728 8.3 45.4128 8.38H45.6828L45.7728 8.53H45.3828L45.6528 8.98H45.6828C45.7228 9.08 45.7728 9.18 45.8328 9.28H45.6828C45.7828 9.5 45.8628 9.7 45.9228 9.88C45.9228 9.9 45.9428 9.95 45.9828 10.03H45.9528C45.9928 10.11 46.0128 10.19 46.0128 10.27C46.0328 10.33 46.0528 10.4 46.0728 10.48H46.1928C46.2328 10.56 46.2528 10.64 46.2528 10.72C46.2728 10.78 46.2928 10.85 46.3128 10.93H46.1028C46.1428 11.05 46.1628 11.15 46.1628 11.23H45.5328C45.5528 11.31 45.5628 11.39 45.5628 11.47C45.5628 11.53 45.5728 11.6 45.5928 11.68H46.5528C46.5728 11.76 46.5828 11.86 46.5828 11.98C46.6028 12.08 46.6128 12.18 46.6128 12.28H46.0728V12.73H45.5028V13.18H45.1728V13.48H46.4328V13.78H46.5228V14.08H46.5528V14.38H46.4028V14.53H46.2228V14.98H46.3428V15.13H46.4628V15.43H46.7928V16.03H45.4128V16.63H45.1128V17.23H46.3428V17.83H45.9528V18.43H46.4328V18.73H46.4028V19.03H47.3928V19.18H46.2828V19.78ZM36.2028 7.03H35.8728C35.8728 7.05 35.8728 7.08 35.8728 7.12C35.8928 7.14 35.9028 7.17 35.9028 7.21V7.24C35.9428 7.2 35.9928 7.16 36.0528 7.12C36.1128 7.08 36.1628 7.05 36.2028 7.03ZM35.0328 7.48V7.78H37.5228L37.8828 7.48H35.0328ZM35.8728 7.93V8.2C35.9128 8.14 35.9928 8.05 36.1128 7.93H35.8728ZM65.7777 17.23H64.5777V17.53H64.6677V17.83H68.4177V18.43H66.9477V18.73H64.9077V19.18H68.0877V19.48H66.3177V19.63H66.0777V20.23H65.0277V20.53H65.9877V20.83H65.1177V21.19C65.1177 21.23 65.1077 21.27 65.0877 21.31C65.0877 21.35 65.0877 21.39 65.0877 21.43H65.8077C65.8077 21.45 65.7877 21.5 65.7477 21.58H65.9877C65.8477 21.86 65.6177 22 65.2977 22H60.1977C59.8977 22 59.6577 21.86 59.4777 21.58H59.2377L59.1477 21.43H58.4277C58.4077 21.39 58.3977 21.34 58.3977 21.28L58.1577 21.43H58.4277L58.1877 21.58H59.1177C58.7977 21.76 58.4377 21.91 58.0377 22.03H57.8877C57.7877 22.05 57.6777 22.07 57.5577 22.09C57.4577 22.13 57.3577 22.16 57.2577 22.18H57.1077C56.8877 22.22 56.6577 22.25 56.4177 22.27C56.1977 22.29 55.9677 22.3 55.7277 22.3C55.4677 22.3 55.2177 22.29 54.9777 22.27C54.7377 22.25 54.5077 22.22 54.2877 22.18H54.4377C54.3377 22.16 54.2277 22.13 54.1077 22.09C53.9877 22.07 53.8777 22.05 53.7777 22.03H53.9277C53.5077 21.91 53.1277 21.76 52.7877 21.58H51.8577L51.5877 21.43H51.3177C51.1777 21.33 51.0377 21.24 50.8977 21.16C50.7777 21.06 50.6577 20.95 50.5377 20.83H51.4377L51.1377 20.53H49.2777L49.0077 20.23H50.0877C49.9277 20.03 49.7877 19.83 49.6677 19.63H49.9077L49.8177 19.48H51.5577C51.5177 19.38 51.4677 19.28 51.4077 19.18H48.2277L48.0477 18.73H50.0577L49.9677 18.43H51.4377L51.2577 17.83H47.5077L47.4177 17.53H47.3577C47.3177 17.41 47.2977 17.31 47.2977 17.23H48.4677C48.4477 17.13 48.4277 17.03 48.4077 16.93C48.3877 16.83 48.3677 16.73 48.3477 16.63H50.1477C50.1277 16.59 50.1177 16.54 50.1177 16.48C50.1177 16.42 50.1177 16.37 50.1177 16.33H49.1877C49.1877 16.25 49.1777 16.18 49.1577 16.12C49.1577 16.04 49.1577 15.96 49.1577 15.88H48.5577C48.5577 15.8 48.5577 15.73 48.5577 15.67C48.5577 15.59 48.5477 15.51 48.5277 15.43H48.4677V15.28C48.4677 15.2 48.4577 15.13 48.4377 15.07C48.4377 14.99 48.4377 14.91 48.4377 14.83H47.9877C47.9677 14.75 47.9577 14.68 47.9577 14.62C47.9577 14.54 47.9577 14.46 47.9577 14.38H48.5277V13.78H48.6777V13.63H48.7377V13.03H49.3677V13C49.3677 12.9 49.3677 12.8 49.3677 12.7C49.3677 12.6 49.3777 12.51 49.3977 12.43H47.7777C47.7977 12.35 47.8077 12.28 47.8077 12.22C47.8077 12.14 47.8177 12.06 47.8377 11.98H49.0977V11.83H49.1577C49.1777 11.79 49.1877 11.74 49.1877 11.68C49.1877 11.62 49.1977 11.57 49.2177 11.53H49.3077L49.3977 11.08H48.7377L48.7977 10.93H48.7077C48.7277 10.85 48.7477 10.78 48.7677 10.72C48.7877 10.64 48.8077 10.56 48.8277 10.48H49.0077C49.0477 10.38 49.0777 10.28 49.0977 10.18C49.1377 10.06 49.1777 9.96 49.2177 9.88H49.1577L49.2177 9.73C49.2577 9.63 49.2977 9.53 49.3377 9.43C49.3977 9.31 49.4577 9.21 49.5177 9.13L49.7877 8.68H49.4877L49.6977 8.38H49.3077C49.3877 8.3 49.4677 8.2 49.5477 8.08H50.5977C50.6377 8.04 50.6777 7.99 50.7177 7.93C50.7777 7.87 50.8377 7.82 50.8977 7.78H49.8477C49.9877 7.64 50.0977 7.54 50.1777 7.48H51.1077C51.3277 7.3 51.5377 7.15 51.7377 7.03H51.4077C51.8077 6.79 52.2377 6.59 52.6977 6.43H52.2477C52.9677 6.21 53.6977 6.1 54.4377 6.1C55.1977 6.1 55.9077 6.21 56.5677 6.43H57.0177C57.4577 6.57 57.8677 6.77 58.2477 7.03H59.8377V6.43H59.1777V5.83H60.0777V5.38H60.0477V4.78H58.7277V4.48H58.9977V4.18H59.2077V4.03H59.0277V3.88H58.9377V3.73H58.9077V3.58H58.8177V3.43H58.7577V2.83H58.1277V2.23H58.8177V2.08H58.9077V1.48C58.9077 1.4 58.9277 1.3 58.9677 1.18H59.2677C59.4077 0.859999 59.6577 0.699999 60.0177 0.699999H65.5677C65.9277 0.699999 66.1777 0.859999 66.3177 1.18H65.9877C66.0477 1.26 66.0777 1.37 66.0777 1.51V2.08H65.9877V2.23H65.2977V2.83H65.9277V3.43H65.9877V3.58H66.0777V3.73H66.1077V3.88H66.1977V4.03H66.3777V4.18H66.1677V4.48H65.8977V4.78H67.2177V5.38H67.2477V5.83H66.3477V6.43H67.0077V7.03H65.5677V7.48H65.4177V7.78H66.4677V8.08H65.4177V8.38H65.7777V8.68H66.1077V9.13H66.0777V9.88H66.1377V10.48H65.9577V10.93H66.0177V11.08H66.6777V11.53H67.3977V11.83H66.5577V11.98H66.0177V12.43H66.5877V13.03H64.7577V13.63H64.9677V13.78H65.8677V13.93H66.1377V14.38H65.8377V14.83H66.2577V15.28H66.2877V15.43H65.9577V15.88H66.1977V16.33H68.7477V16.63H65.7777V17.23ZM57.6777 16.33C57.7177 16.39 57.7577 16.45 57.7977 16.51C57.8377 16.55 57.8777 16.59 57.9177 16.63H56.1177C56.3577 16.83 56.6877 16.93 57.1077 16.93C57.5077 16.93 57.8377 16.83 58.0977 16.63H61.0677C61.1077 16.59 61.1477 16.55 61.1877 16.51C61.2477 16.45 61.2877 16.39 61.3077 16.33H58.7577C58.8177 16.21 58.8777 16.06 58.9377 15.88H58.6977C58.7177 15.8 58.7277 15.73 58.7277 15.67C58.7477 15.59 58.7577 15.51 58.7577 15.43H59.1177V15.28H59.0877V15.19C59.0877 15.13 59.0877 15.07 59.0877 15.01C59.0877 14.95 59.0977 14.89 59.1177 14.83H58.6977V14.38H58.9977V13.93H58.7577V13.78H57.8277V13.63H57.6477C57.6277 13.53 57.6177 13.43 57.6177 13.33C57.6177 13.23 57.6077 13.13 57.5877 13.03H59.4177V12.97C59.3977 12.75 59.3677 12.57 59.3277 12.43H58.7577C58.6977 12.23 58.6277 12.08 58.5477 11.98H59.0877C59.0677 11.94 59.0277 11.89 58.9677 11.83H59.8077C59.6677 11.69 59.4877 11.59 59.2677 11.53H58.5477C58.4677 11.51 58.3777 11.5 58.2777 11.5C58.1977 11.48 58.1077 11.47 58.0077 11.47C57.9077 11.47 57.8177 11.48 57.7377 11.5C57.6577 11.5 57.5777 11.51 57.4977 11.53H57.4077C57.1877 11.59 57.0077 11.69 56.8677 11.83H56.8077C56.7877 11.87 56.7477 11.92 56.6877 11.98H55.4577C55.3777 12.08 55.3077 12.23 55.2477 12.43H56.8377C56.8177 12.51 56.7977 12.61 56.7777 12.73C56.7577 12.83 56.7377 12.93 56.7177 13.03H56.1177V13.21C56.0977 13.27 56.0877 13.34 56.0877 13.42C56.0877 13.48 56.0777 13.55 56.0577 13.63H55.9977V13.78H55.8777V13.93C55.8577 14.07 55.8577 14.22 55.8777 14.38H55.3077V14.83H55.7877C55.7877 14.89 55.7877 14.95 55.7877 15.01C55.7877 15.07 55.7977 15.13 55.8177 15.19V15.28C55.8377 15.32 55.8477 15.37 55.8477 15.43H55.9077L55.9977 15.88H56.5977C56.6377 16.06 56.6977 16.21 56.7777 16.33H57.6777ZM117.743 13.78V14.08H121.553V14.38H119.243V14.68H118.163V14.98H119.093V15.16C119.093 15.28 119.083 15.37 119.063 15.43H119.483C119.343 15.79 119.083 15.97 118.703 15.97H109.763V16.03H110.963V16.12C110.963 16.2 110.963 16.29 110.963 16.39C110.963 16.47 110.973 16.55 110.993 16.63H109.373C109.373 16.69 109.373 16.75 109.373 16.81C109.393 16.85 109.403 16.89 109.403 16.93H109.223C109.223 17.01 109.243 17.11 109.283 17.23H109.403C109.503 17.51 109.663 17.71 109.883 17.83H109.073C109.213 17.91 109.403 17.95 109.643 17.95C109.803 17.95 109.933 17.91 110.033 17.83H111.443C111.523 17.79 111.593 17.73 111.653 17.65C111.733 17.57 111.823 17.49 111.923 17.41L112.103 17.23H111.533C111.713 17.07 111.983 16.99 112.343 16.99H118.013C118.253 16.99 118.433 17.07 118.553 17.23H119.093C119.193 17.37 119.243 17.51 119.243 17.65C119.223 17.69 119.213 17.75 119.213 17.83H117.803C117.763 18.03 117.703 18.23 117.623 18.43H116.153C116.093 18.53 116.043 18.63 116.003 18.73H119.723C119.683 18.83 119.623 18.93 119.543 19.03C119.483 19.13 119.413 19.23 119.333 19.33H118.433C118.353 19.45 118.273 19.55 118.193 19.63H118.403C118.383 19.65 118.363 19.67 118.343 19.69C118.323 19.71 118.303 19.74 118.283 19.78H116.603L116.453 19.93H116.963C116.943 19.95 116.913 19.97 116.873 19.99C116.853 20.01 116.833 20.04 116.813 20.08H117.743C117.603 20.22 117.423 20.37 117.203 20.53H116.753C116.733 20.55 116.703 20.57 116.663 20.59C116.623 20.61 116.583 20.64 116.543 20.68H116.213C115.893 20.9 115.543 21.1 115.163 21.28H114.773C114.533 21.4 114.273 21.51 113.993 21.61C113.733 21.71 113.453 21.8 113.153 21.88H112.673C112.453 21.94 112.223 21.99 111.983 22.03C111.743 22.09 111.483 22.14 111.203 22.18H112.463C112.183 22.22 111.893 22.25 111.593 22.27C111.293 22.29 110.973 22.3 110.633 22.3C110.313 22.3 109.993 22.29 109.673 22.27C109.353 22.25 109.043 22.22 108.743 22.18H107.483C107.223 22.14 106.973 22.09 106.733 22.03C106.493 21.99 106.253 21.94 106.013 21.88H106.493C105.953 21.74 105.443 21.54 104.963 21.28H105.353C104.993 21.08 104.683 20.88 104.423 20.68H104.753C104.713 20.64 104.673 20.61 104.633 20.59C104.613 20.57 104.583 20.55 104.543 20.53H104.993C104.913 20.45 104.833 20.38 104.753 20.32C104.673 20.24 104.593 20.16 104.513 20.08H103.553L103.403 19.93H102.893C102.873 19.89 102.853 19.86 102.833 19.84C102.813 19.82 102.793 19.8 102.773 19.78H104.423C104.403 19.74 104.363 19.69 104.303 19.63H104.093C104.053 19.59 104.013 19.54 103.973 19.48C103.933 19.42 103.893 19.37 103.853 19.33H104.753C104.693 19.23 104.633 19.13 104.573 19.03C104.513 18.93 104.453 18.83 104.393 18.73H100.643C100.583 18.63 100.533 18.53 100.493 18.43H101.963L101.693 17.83H102.503C102.463 17.73 102.423 17.63 102.383 17.53C102.363 17.43 102.333 17.33 102.293 17.23H102.203L102.113 16.93H102.323L102.233 16.63H103.853C103.833 16.53 103.813 16.43 103.793 16.33C103.773 16.23 103.753 16.13 103.733 16.03H102.533L102.473 15.43H102.053C102.053 15.35 102.043 15.28 102.023 15.22C102.023 15.14 102.023 15.06 102.023 14.98H101.093V14.68H102.143V14.38H104.453V14.08H100.643V14.02C100.643 13.92 100.653 13.84 100.673 13.78H105.863C105.863 13.7 105.863 13.63 105.863 13.57C105.883 13.49 105.893 13.41 105.893 13.33H101.123C101.123 13.29 101.123 13.26 101.123 13.24C101.143 13.22 101.153 13.2 101.153 13.18H103.133C103.133 13.12 103.143 13.07 103.163 13.03H105.383V12.88H101.153C101.173 12.78 101.193 12.68 101.213 12.58C101.233 12.48 101.253 12.38 101.273 12.28H102.413C102.413 12.2 102.433 12.1 102.473 11.98H101.483C101.483 11.94 101.483 11.91 101.483 11.89C101.503 11.87 101.513 11.85 101.513 11.83H102.233C102.233 11.79 102.233 11.76 102.233 11.74C102.253 11.72 102.263 11.7 102.263 11.68H101.513L101.573 11.53H102.293L102.383 11.23H102.953L103.133 10.78H102.593C102.633 10.68 102.673 10.58 102.713 10.48C102.753 10.36 102.803 10.26 102.863 10.18H102.773L102.833 10.03H102.083C102.123 9.95 102.143 9.9 102.143 9.88H101.453L101.633 9.58H103.103C103.123 9.54 103.163 9.49 103.223 9.43H103.763C103.843 9.33 103.913 9.23 103.973 9.13C104.053 9.01 104.133 8.91 104.213 8.83H103.673C103.733 8.75 103.793 8.68 103.853 8.62C103.933 8.54 104.013 8.46 104.093 8.38H105.263L105.563 8.08H103.793C104.053 7.86 104.313 7.66 104.573 7.48H106.223L106.463 7.33H105.923C106.083 7.23 106.273 7.13 106.493 7.03H107.663C108.203 6.77 108.763 6.57 109.343 6.43H107.663C108.103 6.33 108.563 6.25 109.043 6.19C109.523 6.13 110.023 6.1 110.543 6.1C111.063 6.1 111.553 6.13 112.013 6.19C112.473 6.25 112.913 6.33 113.333 6.43H114.983C115.283 6.51 115.563 6.6 115.823 6.7C116.103 6.8 116.373 6.91 116.633 7.03H115.463C115.563 7.07 115.653 7.12 115.733 7.18C115.833 7.22 115.923 7.27 116.003 7.33H116.543C116.583 7.35 116.623 7.37 116.663 7.39C116.703 7.41 116.743 7.44 116.783 7.48H115.133C115.393 7.66 115.653 7.86 115.913 8.08H117.713L118.013 8.38H116.843C116.923 8.46 116.993 8.54 117.053 8.62C117.133 8.68 117.203 8.75 117.263 8.83H117.803C117.883 8.91 117.953 9.01 118.013 9.13C118.093 9.23 118.173 9.33 118.253 9.43H117.683C117.703 9.47 117.743 9.52 117.803 9.58H116.303L116.483 9.88H117.173L117.263 10.03H118.043C118.043 10.05 118.063 10.1 118.103 10.18H118.193L118.463 10.78L118.643 11.23H118.673L118.763 11.53H118.403L118.463 11.68H118.733L118.793 11.83H119.273C119.273 11.85 119.273 11.87 119.273 11.89C119.293 11.91 119.303 11.94 119.303 11.98H119.063L119.153 12.28H118.013L118.103 12.88H122.333V13.03H120.113C120.113 13.05 120.113 13.07 120.113 13.09C120.133 13.11 120.143 13.14 120.143 13.18H118.133C118.153 13.22 118.163 13.27 118.163 13.33H122.933C122.933 13.41 122.933 13.49 122.933 13.57C122.933 13.63 122.943 13.7 122.963 13.78H117.743ZM108.623 11.83V11.98H109.583V12.22H111.983V11.98H112.193V11.83H111.713V11.68H111.413C111.413 11.62 111.403 11.57 111.383 11.53H111.743C111.743 11.45 111.723 11.35 111.683 11.23H111.653C111.633 11.05 111.573 10.9 111.473 10.78C111.273 10.46 110.963 10.3 110.543 10.3C110.143 10.3 109.843 10.46 109.643 10.78H110.183C110.103 10.9 110.043 11.05 110.003 11.23H109.403C109.403 11.27 109.393 11.32 109.373 11.38C109.373 11.42 109.363 11.47 109.343 11.53H108.623C108.623 11.59 108.613 11.64 108.593 11.68H109.343V11.83H108.623ZM137.994 17.23H136.794V17.53H136.884V17.83H140.634V18.43H139.164V18.73H137.124V19.18H140.304V19.48H138.534V19.63H138.294V20.23H137.244V20.53H138.204V20.83H137.334V21.19C137.334 21.23 137.324 21.27 137.304 21.31C137.304 21.35 137.304 21.39 137.304 21.43H138.024C138.024 21.45 138.004 21.5 137.964 21.58H138.204C138.064 21.86 137.834 22 137.514 22H132.414C132.114 22 131.874 21.86 131.694 21.58H131.454L131.364 21.43H130.644C130.624 21.39 130.614 21.34 130.614 21.28L130.374 21.43H130.644L130.404 21.58H131.334C131.014 21.76 130.654 21.91 130.254 22.03H130.104C130.004 22.05 129.894 22.07 129.774 22.09C129.674 22.13 129.574 22.16 129.474 22.18H129.324C129.104 22.22 128.874 22.25 128.634 22.27C128.414 22.29 128.184 22.3 127.944 22.3C127.684 22.3 127.434 22.29 127.194 22.27C126.954 22.25 126.724 22.22 126.504 22.18H126.654C126.554 22.16 126.444 22.13 126.324 22.09C126.204 22.07 126.094 22.05 125.994 22.03H126.144C125.724 21.91 125.344 21.76 125.004 21.58H124.074L123.804 21.43H123.534C123.394 21.33 123.254 21.24 123.114 21.16C122.994 21.06 122.874 20.95 122.754 20.83H123.654L123.354 20.53H121.494L121.224 20.23H122.304C122.144 20.03 122.004 19.83 121.884 19.63H122.124L122.034 19.48H123.774C123.734 19.38 123.684 19.28 123.624 19.18H120.444L120.264 18.73H122.274L122.184 18.43H123.654L123.474 17.83H119.724L119.634 17.53H119.574C119.534 17.41 119.514 17.31 119.514 17.23H120.684C120.664 17.13 120.644 17.03 120.624 16.93C120.604 16.83 120.584 16.73 120.564 16.63H122.364C122.344 16.59 122.334 16.54 122.334 16.48C122.334 16.42 122.334 16.37 122.334 16.33H121.404C121.404 16.25 121.394 16.18 121.374 16.12C121.374 16.04 121.374 15.96 121.374 15.88H120.774C120.774 15.8 120.774 15.73 120.774 15.67C120.774 15.59 120.764 15.51 120.744 15.43H120.684V15.28C120.684 15.2 120.674 15.13 120.654 15.07C120.654 14.99 120.654 14.91 120.654 14.83H120.204C120.184 14.75 120.174 14.68 120.174 14.62C120.174 14.54 120.174 14.46 120.174 14.38H120.744V13.78H120.894V13.63H120.954V13.03H121.584V13C121.584 12.9 121.584 12.8 121.584 12.7C121.584 12.6 121.594 12.51 121.614 12.43H119.994C120.014 12.35 120.024 12.28 120.024 12.22C120.024 12.14 120.034 12.06 120.054 11.98H121.314V11.83H121.374C121.394 11.79 121.404 11.74 121.404 11.68C121.404 11.62 121.414 11.57 121.434 11.53H121.524L121.614 11.08H120.954L121.014 10.93H120.924C120.944 10.85 120.964 10.78 120.984 10.72C121.004 10.64 121.024 10.56 121.044 10.48H121.224C121.264 10.38 121.294 10.28 121.314 10.18C121.354 10.06 121.394 9.96 121.434 9.88H121.374L121.434 9.73C121.474 9.63 121.514 9.53 121.554 9.43C121.614 9.31 121.674 9.21 121.734 9.13L122.004 8.68H121.704L121.914 8.38H121.524C121.604 8.3 121.684 8.2 121.764 8.08H122.814C122.854 8.04 122.894 7.99 122.934 7.93C122.994 7.87 123.054 7.82 123.114 7.78H122.064C122.204 7.64 122.314 7.54 122.394 7.48H123.324C123.544 7.3 123.754 7.15 123.954 7.03H123.624C124.024 6.79 124.454 6.59 124.914 6.43H124.464C125.184 6.21 125.914 6.1 126.654 6.1C127.414 6.1 128.124 6.21 128.784 6.43H129.234C129.674 6.57 130.084 6.77 130.464 7.03H132.054V6.43H131.394V5.83H132.294V5.38H132.264V4.78H130.944V4.48H131.214V4.18H131.424V4.03H131.244V3.88H131.154V3.73H131.124V3.58H131.034V3.43H130.974V2.83H130.344V2.23H131.034V2.08H131.124V1.48C131.124 1.4 131.144 1.3 131.184 1.18H131.484C131.624 0.859999 131.874 0.699999 132.234 0.699999H137.784C138.144 0.699999 138.394 0.859999 138.534 1.18H138.204C138.264 1.26 138.294 1.37 138.294 1.51V2.08H138.204V2.23H137.514V2.83H138.144V3.43H138.204V3.58H138.294V3.73H138.324V3.88H138.414V4.03H138.594V4.18H138.384V4.48H138.114V4.78H139.434V5.38H139.464V5.83H138.564V6.43H139.224V7.03H137.784V7.48H137.634V7.78H138.684V8.08H137.634V8.38H137.994V8.68H138.324V9.13H138.294V9.88H138.354V10.48H138.174V10.93H138.234V11.08H138.894V11.53H139.614V11.83H138.774V11.98H138.234V12.43H138.804V13.03H136.974V13.63H137.184V13.78H138.084V13.93H138.354V14.38H138.054V14.83H138.474V15.28H138.504V15.43H138.174V15.88H138.414V16.33H140.964V16.63H137.994V17.23ZM129.894 16.33C129.934 16.39 129.974 16.45 130.014 16.51C130.054 16.55 130.094 16.59 130.134 16.63H128.334C128.574 16.83 128.904 16.93 129.324 16.93C129.724 16.93 130.054 16.83 130.314 16.63H133.284C133.324 16.59 133.364 16.55 133.404 16.51C133.464 16.45 133.504 16.39 133.524 16.33H130.974C131.034 16.21 131.094 16.06 131.154 15.88H130.914C130.934 15.8 130.944 15.73 130.944 15.67C130.964 15.59 130.974 15.51 130.974 15.43H131.334V15.28H131.304V15.19C131.304 15.13 131.304 15.07 131.304 15.01C131.304 14.95 131.314 14.89 131.334 14.83H130.914V14.38H131.214V13.93H130.974V13.78H130.044V13.63H129.864C129.844 13.53 129.834 13.43 129.834 13.33C129.834 13.23 129.824 13.13 129.804 13.03H131.634V12.97C131.614 12.75 131.584 12.57 131.544 12.43H130.974C130.914 12.23 130.844 12.08 130.764 11.98H131.304C131.284 11.94 131.244 11.89 131.184 11.83H132.024C131.884 11.69 131.704 11.59 131.484 11.53H130.764C130.684 11.51 130.594 11.5 130.494 11.5C130.414 11.48 130.324 11.47 130.224 11.47C130.124 11.47 130.034 11.48 129.954 11.5C129.874 11.5 129.794 11.51 129.714 11.53H129.624C129.404 11.59 129.224 11.69 129.084 11.83H129.024C129.004 11.87 128.964 11.92 128.904 11.98H127.674C127.594 12.08 127.524 12.23 127.464 12.43H129.054C129.034 12.51 129.014 12.61 128.994 12.73C128.974 12.83 128.954 12.93 128.934 13.03H128.334V13.21C128.314 13.27 128.304 13.34 128.304 13.42C128.304 13.48 128.294 13.55 128.274 13.63H128.214V13.78H128.094V13.93C128.074 14.07 128.074 14.22 128.094 14.38H127.524V14.83H128.004C128.004 14.89 128.004 14.95 128.004 15.01C128.004 15.07 128.014 15.13 128.034 15.19V15.28C128.054 15.32 128.064 15.37 128.064 15.43H128.124L128.214 15.88H128.814C128.854 16.06 128.914 16.21 128.994 16.33H129.894Z" fill="#FBFBFB" fill-opacity="0.8"/>
<path d="M90.4416 20.38L90.6516 20.98H90.1416L90.2016 21.13C90.2016 21.15 90.2016 21.18 90.2016 21.22C90.2216 21.24 90.2316 21.26 90.2316 21.28H90.0516V21.34C90.0516 21.58 89.9616 21.76 89.7816 21.88H89.8116C89.7116 21.96 89.5816 22 89.4216 22H83.8716C83.7316 22 83.6116 21.99 83.5116 21.97C83.4316 21.93 83.3416 21.9 83.2416 21.88C83.0816 21.8 82.9616 21.71 82.8816 21.61C82.8016 21.49 82.7416 21.38 82.7016 21.28H82.8516V21.25L82.7916 21.13L82.7316 20.98H83.2416L83.0316 20.38H82.4616L82.3716 20.08H83.6016L83.3916 19.48H83.0316L82.9416 19.27H76.4916L76.4316 19.48H76.0716L75.8616 20.08H75.5316L75.4116 20.38H75.2316L75.0216 20.98H75.0516L74.9916 21.13L74.9616 21.25L74.9316 21.28H74.7816C74.7416 21.38 74.6816 21.49 74.6016 21.61C74.5216 21.71 74.4016 21.8 74.2416 21.88H75.1416C75.0616 21.9 74.9716 21.93 74.8716 21.97C74.7716 21.99 74.6516 22 74.5116 22H68.9616C68.8016 22 68.6816 21.96 68.6016 21.88H67.7016C67.5016 21.74 67.4016 21.56 67.4016 21.34V21.28H67.5816C67.5816 21.22 67.5916 21.17 67.6116 21.13L67.6416 20.98H67.6116L67.8216 20.38H68.0016L68.1216 20.08H68.4516L68.6616 19.48H68.9916L69.2016 18.88H68.0316L68.1516 18.58H68.0616L68.2116 18.13H68.5116L68.5716 17.98H67.9116L68.1216 17.38H69.1416L69.2316 17.08H68.3016L68.3616 16.93H68.5116L68.7216 16.33H68.6316L68.7816 15.88H68.9016L69.1116 15.28H69.5016L69.6516 14.83L69.7116 14.68H71.2116L71.2716 14.53H71.1816L71.3316 14.08H69.6516L69.8616 13.48H70.4016L70.4616 13.33H70.1316L70.1916 13.18H71.1516L71.3616 12.58H70.1916L70.3116 12.28H70.7616L70.9716 11.68H70.7016L70.8516 11.23H71.1816L71.3916 10.63H71.3016L71.3616 10.48H70.6716L70.7916 10.18H71.4516L71.6016 9.73H71.3016L71.3316 9.58H71.8716L72.0816 8.98H71.4216L71.5716 8.53H71.2416L71.3316 8.23H69.2616L69.3516 7.93H68.9616L69.1716 7.33H68.7816L68.9616 6.88H70.1316L70.3416 6.28H73.3416L73.4916 5.83H72.0516L72.1716 5.53H73.2816L73.4916 4.93H72.5016L72.6516 4.48H73.2816L73.4916 3.88H73.4016L73.6116 3.28H72.7716L72.8016 3.13H75.6816L75.8916 2.53H75.8016L75.8616 2.38H74.8116L74.9316 1.99L75.0216 1.78H75.3216L75.5016 1.48H75.4116C75.5116 1.34 75.6516 1.23 75.8316 1.15C76.0116 1.05 76.2316 0.999999 76.4916 0.999999H83.0016C83.2616 0.999999 83.4816 1.05 83.6616 1.15C83.8416 1.23 83.9816 1.34 84.0816 1.48H84.2016L84.3816 1.78H84.0816C84.1216 1.86 84.1416 1.93 84.1416 1.99L84.2916 2.38H85.3416L85.3716 2.53H85.4616L85.6716 3.13H82.8216L82.8816 3.28H83.7216L83.9316 3.88H84.0216L84.2316 4.48H83.6016L83.7516 4.93H84.7416L84.9516 5.53H83.8416L83.9616 5.83H85.4016L85.5516 6.28H82.5516L82.7616 6.88H81.5916L81.7416 7.33H82.1016L82.3116 7.93H81.1416L81.2616 8.23H86.0316L86.1216 8.53H85.8816L86.0316 8.98H85.4316L85.6416 9.58H84.9216L84.9516 9.73H86.0316L86.1816 10.18H86.2116L86.3316 10.48H85.3416L85.4016 10.63H86.3616L86.5716 11.23H86.9016L87.0516 11.68H86.9616L87.1716 12.28H87.6516L87.7716 12.58H86.9016L87.1116 13.18H87.7116L87.7416 13.33H87.5916L87.6516 13.48H87.1116L87.2916 14.08H89.0016L89.1516 14.53H89.2416L89.3016 14.68H87.7716L87.8316 14.83H87.8616L88.0116 15.28H87.6216L87.8316 15.88H87.6816L87.8616 16.33H87.9516L88.1616 16.93H88.0116L88.0716 17.08H89.0016L89.1216 17.38H88.0716L88.2816 17.98H88.9416L89.0016 18.13H88.7016L88.8816 18.58H88.9416L89.0616 18.88H90.2316L90.4416 19.48H90.8016L91.0116 20.08H89.7816L89.8716 20.38H90.4416ZM77.9016 8.53H78.2616L78.1116 8.98H79.3416L79.1916 8.53H79.4316L79.3416 8.23H77.9916L77.9016 8.53ZM78.8916 9.58L78.7416 9.07L78.5916 9.58H78.8916ZM77.0916 13.18L77.0316 13.33H77.3616L77.3316 13.42H80.7216L80.6916 13.33H80.8416L80.8116 13.18H80.2116L80.0316 12.58H80.9016L80.8116 12.28H80.3016L80.1216 11.68H80.2116L80.0916 11.23H79.7616L79.5816 10.63H78.6216L78.5616 10.48H79.5516L79.4616 10.18H79.4316L79.2816 9.73H78.3216L78.2016 10.18H77.5416L77.4516 10.48H78.1116L78.0816 10.63H78.1716L77.9916 11.23H77.6616L77.5116 11.68H77.7816L77.6016 12.28H77.1516L77.0616 12.58H78.2316L78.0516 13.18H77.0916ZM103.188 6.13H98.2981V6.73H100.248V7.33H102.828V7.78H99.9181V7.93H100.278V8.53H99.5281V8.68H99.4681V8.83H98.7181V9.43H100.128V9.58H100.188V9.73H99.8581V10.18H99.6481V10.33H100.638V10.93H98.2381V11.53H99.1081V11.98H99.5881V12.58H99.6481V13.18H99.4081V13.93H99.6781V14.23H99.4981V14.68H99.4681V14.83H99.2281V15.43H99.4981V15.73H99.4681V17.53H99.4981V18.13H100.008V18.73H99.5881V19.03H99.4681V19.33H99.8281V19.93H99.3181V20.08H100.068V20.38H100.338V20.53H100.098V20.98H99.9781V21.19C99.9781 21.23 99.9681 21.27 99.9481 21.31C99.9481 21.35 99.9381 21.39 99.9181 21.43H99.1681C99.1481 21.53 99.0881 21.63 98.9881 21.73H99.8281C99.7481 21.81 99.6881 21.86 99.6481 21.88H97.9381C97.8381 21.96 97.6981 22 97.5181 22H91.3981C91.2181 22 91.0781 21.96 90.9781 21.88H92.6881C92.6081 21.86 92.5481 21.81 92.5081 21.73H91.6681C91.5681 21.63 91.5081 21.53 91.4881 21.43H92.2681C92.2481 21.37 92.2381 21.29 92.2381 21.19V20.98H92.3581V20.53H92.5981V20.38H92.3281V20.08H91.5781V19.93H92.0881V19.33H91.7281V19.03H91.8481V18.73H92.2681V18.13H91.7581V17.53H91.7281V15.73H91.7581V15.43H91.4881V14.83H91.7281V14.68H91.7581V14.23H91.9381V13.93H91.6681V13.18H91.9081V12.58H91.8481V11.98H91.3681V11.53H90.4981V10.93H92.8981V10.33H91.9081V10.18H92.1181V9.73H92.4481V9.58H92.3881V9.43H90.9781V8.83H91.7281V8.68H91.7881V8.53H92.5381V7.93H92.1781V7.78H95.0881V7.33H92.5081V6.73H90.5581V6.13H95.4481V5.98H92.3881V5.53H92.3581V5.08H91.8181V4.93H93.6481V4.63H92.2681V4.03H92.3881V3.58H91.5481V2.98H91.6981V2.68H91.6081V2.38H91.8481V2.23H91.5781V1.81C91.5781 1.71 91.5981 1.6 91.6381 1.48H91.7881C91.9281 1.16 92.1781 0.999999 92.5381 0.999999H98.6581C99.0181 0.999999 99.2681 1.16 99.4081 1.48H99.2581C99.2981 1.6 99.3181 1.71 99.3181 1.81V2.23H99.5881V2.38H99.3481V2.68H99.4381V2.98H99.2881V3.58H100.128V4.03H100.008V4.63H101.388V4.93H99.5581V5.08H100.098V5.53H100.128V5.98H103.188V6.13Z" fill="#DC002F" fill-opacity="0.74"/>
</svg>
