<svg width="21" height="20" viewBox="0 0 21 20" fill="none" xmlns="http://www.w3.org/2000/svg">
<g id="LOGO">
<path id="Shape" fill-rule="evenodd" clip-rule="evenodd" d="M20.2999 10.0761C20.2999 9.37752 20.2363 8.70578 20.1181 8.06091H10.7V11.8719H16.0818C15.85 13.1034 15.1454 14.1469 14.0863 14.8455V17.3175H17.3181C19.209 15.6023 20.2999 13.0766 20.2999 10.0761Z" fill="#4285F4"/>
<path id="Shape_2" fill-rule="evenodd" clip-rule="evenodd" d="M10.7 19.7043C13.4 19.7043 15.6637 18.8221 17.3182 17.3174L14.0864 14.8454C13.1909 15.4365 12.0455 15.7859 10.7 15.7859C8.09549 15.7859 5.89094 14.0528 5.10458 11.7241H1.76367V14.2767C3.40913 17.4966 6.79094 19.7043 10.7 19.7043Z" fill="#34A853"/>
<path id="Shape_3" fill-rule="evenodd" clip-rule="evenodd" d="M5.1045 11.7241C4.9045 11.1329 4.79086 10.5015 4.79086 9.85214C4.79086 9.20279 4.9045 8.57136 5.1045 7.98023V5.42761H1.76359C1.08631 6.75766 0.699951 8.26236 0.699951 9.85214C0.699951 11.4419 1.08631 12.9466 1.76359 14.2767L5.1045 11.7241Z" fill="#FBBC05"/>
<path id="Shape_4" fill-rule="evenodd" clip-rule="evenodd" d="M10.7 3.91849C12.1682 3.91849 13.4864 4.41557 14.5228 5.39184L17.3909 2.56605C15.6591 0.976263 13.3955 0 10.7 0C6.79094 0 3.40913 2.20779 1.76367 5.42766L5.10458 7.98028C5.89094 5.65158 8.09549 3.91849 10.7 3.91849Z" fill="#EA4335"/>
</g>
</svg>
