<svg viewBox="0 0 115 115" fill="none" xmlns="http://www.w3.org/2000/svg">
<path d="M57.5 11.5L103.5 86.25H11.5L57.5 11.5Z" stroke="#FF2957" stroke-width="2" fill="#b041fd"/>
<path d="M57.5 86.25L23 34.5H92L57.5 86.25Z" fill="#1A1A2E" stroke="#00FFFF" stroke-width="2"/>
<path d="M40.25 51.75H74.75M40.25 63.25H74.75" stroke="#FF2957" stroke-width="1.5"/>
<path d="M23 34.5H11.5M92 34.5H103.5" stroke="#00FFFF" stroke-width="2"/>
<path d="M57.5 69C63.8513 69 69 63.8513 69 57.5C69 51.1487 63.8513 46 57.5 46C51.1487 46 46 51.1487 46 57.5C46 63.8513 51.1487 69 57.5 69Z" stroke="#FF2957" stroke-width="2"/>
<path d="M57.5 63.25C60.6756 63.25 63.25 60.6756 63.25 57.5C63.25 54.3244 60.6756 51.75 57.5 51.75C54.3244 51.75 51.75 54.3244 51.75 57.5C51.75 60.6756 54.3244 63.25 57.5 63.25Z" fill="#00FFFF"/>
<path d="M23.0002 36.8C24.2705 36.8 25.3002 35.7703 25.3002 34.5C25.3002 33.2298 24.2705 32.2 23.0002 32.2C21.7299 32.2 20.7002 33.2298 20.7002 34.5C20.7002 35.7703 21.7299 36.8 23.0002 36.8Z" fill="#FF2957"/>
<path d="M92.0002 36.8C93.2705 36.8 94.3002 35.7703 94.3002 34.5C94.3002 33.2298 93.2705 32.2 92.0002 32.2C90.7299 32.2 89.7002 33.2298 89.7002 34.5C89.7002 35.7703 90.7299 36.8 92.0002 36.8Z" fill="#FF2957"/>
<path d="M57.5002 88.55C58.7705 88.55 59.8002 87.5203 59.8002 86.25C59.8002 84.9798 58.7705 83.95 57.5002 83.95C56.2299 83.95 55.2002 84.9798 55.2002 86.25C55.2002 87.5203 56.2299 88.55 57.5002 88.55Z" fill="#00FFFF"/>
</svg>