<svg viewBox="0 0 115 115" fill="none" xmlns="http://www.w3.org/2000/svg">
<path d="M57.5 11.5L103.5 86.25H11.5L57.5 11.5Z" stroke="#FF2957" stroke-width="2" fill="#fc9e25"/>
<path d="M57.5 92L34.5 46H80.5L57.5 92Z" fill="#1A1A2E" stroke="#00FFFF" stroke-width="2"/>
<path d="M42 57.5L73 57.5M42 69L73 69" stroke="#FF2957" stroke-width="1.5"/>
<path d="M34.5 46H11.5M80.5 46H103.5" stroke="#00FFFF" stroke-width="2"/>
<path d="M57.5 57.5L40.25 34.5H74.75L57.5 57.5Z" fill="#fc9e25" stroke="#FF2957" stroke-width="2"/>
<path d="M57.5 74C65.5081 74 72 67.5081 72 59.5C72 51.4919 65.5081 45 57.5 45C49.4919 45 43 51.4919 43 59.5C43 67.5081 49.4919 74 57.5 74Z" stroke="#FF2957" stroke-width="2"/>
<path d="M57.5 67C61.6421 67 65 63.6421 65 59.5C65 55.3579 61.6421 52 57.5 52C53.3579 52 50 55.3579 50 59.5C50 63.6421 53.3579 67 57.5 67Z" fill="#00FFFF"/>
<path d="M34.5 48.3C35.7703 48.3 36.8 47.2703 36.8 46C36.8 44.7297 35.7703 43.7 34.5 43.7C33.2297 43.7 32.2 44.7297 32.2 46C32.2 47.2703 33.2297 48.3 34.5 48.3Z" fill="#FF2957"/>
<path d="M80.5 48.3C81.7703 48.3 82.8 47.2703 82.8 46C82.8 44.7297 81.7703 43.7 80.5 43.7C79.2297 43.7 78.2 44.7297 78.2 46C78.2 47.2703 79.2297 48.3 80.5 48.3Z" fill="#FF2957"/>
<path d="M57.5 94.3C58.7703 94.3 59.8 93.2703 59.8 92C59.8 90.7297 58.7703 89.7 57.5 89.7C56.2297 89.7 55.2 90.7297 55.2 92C55.2 93.2703 56.2297 94.3 57.5 94.3Z" fill="#00FFFF"/>
</svg>