<svg width="115" height="115" viewBox="0 0 115 115" fill="none" xmlns="http://www.w3.org/2000/svg">
<g clip-path="url(#clip0_83_741)">
<path d="M114.422 57.5L57.5 0.577881L0.577905 57.5L57.5 114.422L114.422 57.5Z" fill="#1A1A2E"/>
<path d="M37.375 37.375H83.375V83.375H37.375V37.375Z" stroke="#fd3c2f" stroke-width="2"/>
<path d="M40.25 40.25H74.75V74.75H40.25V40.25Z" stroke="#00FFFF" stroke-width="2"/>
<path d="M48.875 57.5H66.125H48.875ZM57.5 48.875V66.125V48.875Z" fill="black"/>
<path d="M48.875 57.5H66.125M57.5 48.875V66.125" stroke="#fd3c2f" stroke-width="3"/>
<path d="M40.25 43.125C41.8378 43.125 43.125 41.8378 43.125 40.25C43.125 38.6622 41.8378 37.375 40.25 37.375C38.6622 37.375 37.375 38.6622 37.375 40.25C37.375 41.8378 38.6622 43.125 40.25 43.125Z" fill="#00FFFF"/>
<path d="M74.75 43.125C76.3378 43.125 77.625 41.8378 77.625 40.25C77.625 38.6622 76.3378 37.375 74.75 37.375C73.1622 37.375 71.875 38.6622 71.875 40.25C71.875 41.8378 73.1622 43.125 74.75 43.125Z" fill="#00FFFF"/>
<path d="M40.25 77.625C41.8378 77.625 43.125 76.3378 43.125 74.75C43.125 73.1622 41.8378 71.875 40.25 71.875C38.6622 71.875 37.375 73.1622 37.375 74.75C37.375 76.3378 38.6622 77.625 40.25 77.625Z" fill="#fd3c2f"/>
<path d="M74.75 77.625C76.3378 77.625 77.625 76.3378 77.625 74.75C77.625 73.1622 76.3378 71.875 74.75 71.875C73.1622 71.875 71.875 73.1622 71.875 74.75C71.875 76.3378 73.1622 77.625 74.75 77.625Z" fill="#fd3c2f"/>
<path d="M23 51.75H92H23Z" fill="black"/>
<path d="M23 51.75H92" stroke="#fd3c2f" stroke-opacity="0.266667" stroke-width="4"/>
<path d="M23 63.25H92H23Z" fill="black"/>
<path d="M23 63.25H92" stroke="#00FFFF" stroke-opacity="0.266667" stroke-width="4"/>
<path d="M110.356 57.5L57.5 4.64374L4.64377 57.5L57.5 110.356L110.356 57.5Z" stroke="#fd3c2f"/>
<path d="M57.5 66.125C62.2635 66.125 66.125 62.2635 66.125 57.5C66.125 52.7365 62.2635 48.875 57.5 48.875C52.7365 48.875 48.875 52.7365 48.875 57.5C48.875 62.2635 52.7365 66.125 57.5 66.125Z" fill="#1A1A2E" stroke="#00FFFF" stroke-width="2"/>
<path d="M57.4999 62.1C60.0404 62.1 62.0999 60.0405 62.0999 57.5C62.0999 54.9595 60.0404 52.9 57.4999 52.9C54.9594 52.9 52.8999 54.9595 52.8999 57.5C52.8999 60.0405 54.9594 62.1 57.4999 62.1Z" fill="#fd3c2f"/>
</g>
<defs>
<clipPath id="clip0_83_741">
<rect width="115" height="115" fill="white"/>
</clipPath>
</defs>
</svg>
