<svg width="115" height="115" viewBox="0 0 115 115" fill="none" xmlns="http://www.w3.org/2000/svg">
<path d="M57.5 112.125C87.6686 112.125 112.125 87.6686 112.125 57.5C112.125 27.3314 87.6686 2.875 57.5 2.875C27.3314 2.875 2.875 27.3314 2.875 57.5C2.875 87.6686 27.3314 112.125 57.5 112.125Z" fill="#1A1A2E"/>
<g opacity="0.3">
<path d="M11.5 57.5H46ZM69 57.5H103.5ZM57.5 11.5V46ZM57.5 69V103.5Z" fill="black"/>
<path d="M11.5 57.5H46M69 57.5H103.5M57.5 11.5V46M57.5 69V103.5" stroke="#FF2957"/>
</g>
<path d="M57.5 80.5C70.2025 80.5 80.5 70.2025 80.5 57.5C80.5 44.7975 70.2025 34.5 57.5 34.5C44.7975 34.5 34.5 44.7975 34.5 57.5C34.5 70.2025 44.7975 80.5 57.5 80.5Z" stroke="#00FFFF" stroke-width="3"/>
<path d="M57.5 69C63.8513 69 69 63.8513 69 57.5C69 51.1487 63.8513 46 57.5 46C51.1487 46 46 51.1487 46 57.5C46 63.8513 51.1487 69 57.5 69Z" fill="#FF2957"/>
<path d="M57.5 63.25C60.6756 63.25 63.25 60.6756 63.25 57.5C63.25 54.3244 60.6756 51.75 57.5 51.75C54.3244 51.75 51.75 54.3244 51.75 57.5C51.75 60.6756 54.3244 63.25 57.5 63.25Z" fill="#00FFFF"/>
<path d="M57.5 34.5V11.5M48.875 35.65L34.5 17.25M66.125 35.65L80.5 17.25" stroke="#FF2957" stroke-width="3"/>
<path opacity="0.5" d="M23 92L25.875 80.5H20.125L23 92ZM23 80.5C22.2375 80.5 21.5062 80.1971 20.9671 79.6579C20.4279 79.1188 20.125 78.3875 20.125 77.625C20.125 76.8625 20.4279 76.1312 20.9671 75.5921C21.5062 75.0529 22.2375 74.75 23 74.75" fill="#00FFFF"/>
<path opacity="0.5" d="M92 92L94.875 80.5H89.125L92 92ZM92 80.5C91.2375 80.5 90.5062 80.1971 89.9671 79.6579C89.4279 79.1188 89.125 78.3875 89.125 77.625C89.125 76.8625 89.4279 76.1312 89.9671 75.5921C90.5062 75.0529 91.2375 74.75 92 74.75" fill="#00FFFF"/>
<path d="M48.6477 95.3318V101.15H47.9432V96.0704H47.9091L46.4886 97.0136V96.2977L47.9432 95.3318H48.6477ZM52.2188 101.23C51.7907 101.23 51.4261 101.113 51.125 100.88C50.8239 100.645 50.5938 100.305 50.4347 99.8602C50.2756 99.4133 50.196 98.8735 50.196 98.2409C50.196 97.6121 50.2756 97.0752 50.4347 96.6301C50.5956 96.1831 50.8267 95.8422 51.1278 95.6074C51.4309 95.3706 51.7945 95.2523 52.2188 95.2523C52.643 95.2523 53.0057 95.3706 53.3068 95.6074C53.6098 95.8422 53.8409 96.1831 54 96.6301C54.161 97.0752 54.2415 97.6121 54.2415 98.2409C54.2415 98.8735 54.1619 99.4133 54.0028 99.8602C53.8438 100.305 53.6136 100.645 53.3125 100.88C53.0114 101.113 52.6468 101.23 52.2188 101.23ZM52.2188 100.605C52.643 100.605 52.9725 100.4 53.2074 99.9909C53.4422 99.5818 53.5597 98.9985 53.5597 98.2409C53.5597 97.7371 53.5057 97.3081 53.3977 96.954C53.2917 96.5998 53.1383 96.3299 52.9375 96.1443C52.7386 95.9587 52.4991 95.8659 52.2188 95.8659C51.7983 95.8659 51.4697 96.0733 51.233 96.4881C50.9962 96.9009 50.8778 97.4852 50.8778 98.2409C50.8778 98.7447 50.9309 99.1727 51.0369 99.525C51.143 99.8773 51.2955 100.145 51.4943 100.329C51.6951 100.513 51.9366 100.605 52.2188 100.605ZM57.3665 95.3318V101.15H56.6619V96.0704H56.6278L55.2074 97.0136V96.2977L56.6619 95.3318H57.3665ZM48.5 111.23C48.072 111.23 47.7074 111.113 47.4062 110.88C47.1051 110.645 46.875 110.305 46.7159 109.86C46.5568 109.413 46.4773 108.873 46.4773 108.241C46.4773 107.612 46.5568 107.075 46.7159 106.63C46.8769 106.183 47.108 105.842 47.4091 105.607C47.7121 105.371 48.0758 105.252 48.5 105.252C48.9242 105.252 49.2869 105.371 49.5881 105.607C49.8911 105.842 50.1222 106.183 50.2812 106.63C50.4422 107.075 50.5227 107.612 50.5227 108.241C50.5227 108.873 50.4432 109.413 50.2841 109.86C50.125 110.305 49.8949 110.645 49.5938 110.88C49.2926 111.113 48.928 111.23 48.5 111.23ZM48.5 110.605C48.9242 110.605 49.2538 110.4 49.4886 109.991C49.7235 109.582 49.8409 108.998 49.8409 108.241C49.8409 107.737 49.7869 107.308 49.679 106.954C49.5729 106.6 49.4195 106.33 49.2188 106.144C49.0199 105.959 48.7803 105.866 48.5 105.866C48.0795 105.866 47.7509 106.073 47.5142 106.488C47.2775 106.901 47.1591 107.485 47.1591 108.241C47.1591 108.745 47.2121 109.173 47.3182 109.525C47.4242 109.877 47.5767 110.145 47.7756 110.329C47.9763 110.513 48.2178 110.605 48.5 110.605ZM53.5 111.23C53.072 111.23 52.7074 111.113 52.4062 110.88C52.1051 110.645 51.875 110.305 51.7159 109.86C51.5568 109.413 51.4773 108.873 51.4773 108.241C51.4773 107.612 51.5568 107.075 51.7159 106.63C51.8769 106.183 52.108 105.842 52.4091 105.607C52.7121 105.371 53.0758 105.252 53.5 105.252C53.9242 105.252 54.2869 105.371 54.5881 105.607C54.8911 105.842 55.1222 106.183 55.2812 106.63C55.4422 107.075 55.5227 107.612 55.5227 108.241C55.5227 108.873 55.4432 109.413 55.2841 109.86C55.125 110.305 54.8949 110.645 54.5938 110.88C54.2926 111.113 53.928 111.23 53.5 111.23ZM53.5 110.605C53.9242 110.605 54.2538 110.4 54.4886 109.991C54.7235 109.582 54.8409 108.998 54.8409 108.241C54.8409 107.737 54.7869 107.308 54.679 106.954C54.5729 106.6 54.4195 106.33 54.2188 106.144C54.0199 105.959 53.7803 105.866 53.5 105.866C53.0795 105.866 52.7509 106.073 52.5142 106.488C52.2775 106.901 52.1591 107.485 52.1591 108.241C52.1591 108.745 52.2121 109.173 52.3182 109.525C52.4242 109.877 52.5767 110.145 52.7756 110.329C52.9763 110.513 53.2178 110.605 53.5 110.605ZM58.6477 105.332V111.15H57.9432V106.07H57.9091L56.4886 107.014V106.298L57.9432 105.332H58.6477Z" fill="#FF2957"/>
<path d="M71.5 101.23C71.072 101.23 70.7074 101.113 70.4062 100.88C70.1051 100.645 69.875 100.305 69.7159 99.8602C69.5568 99.4133 69.4773 98.8735 69.4773 98.2409C69.4773 97.6121 69.5568 97.0752 69.7159 96.6301C69.8769 96.1831 70.108 95.8422 70.4091 95.6074C70.7121 95.3706 71.0758 95.2523 71.5 95.2523C71.9242 95.2523 72.2869 95.3706 72.5881 95.6074C72.8911 95.8422 73.1222 96.1831 73.2812 96.6301C73.4422 97.0752 73.5227 97.6121 73.5227 98.2409C73.5227 98.8735 73.4432 99.4133 73.2841 99.8602C73.125 100.305 72.8949 100.645 72.5938 100.88C72.2926 101.113 71.928 101.23 71.5 101.23ZM71.5 100.605C71.9242 100.605 72.2538 100.4 72.4886 99.9909C72.7235 99.5818 72.8409 98.9985 72.8409 98.2409C72.8409 97.7371 72.7869 97.3081 72.679 96.954C72.5729 96.5998 72.4195 96.3299 72.2188 96.1443C72.0199 95.9587 71.7803 95.8659 71.5 95.8659C71.0795 95.8659 70.7509 96.0733 70.5142 96.4881C70.2775 96.9009 70.1591 97.4852 70.1591 98.2409C70.1591 98.7447 70.2121 99.1727 70.3182 99.525C70.4242 99.8773 70.5767 100.145 70.7756 100.329C70.9763 100.513 71.2178 100.605 71.5 100.605ZM76.6477 95.3318V101.15H75.9432V96.0704H75.9091L74.4886 97.0136V96.2977L75.9432 95.3318H76.6477ZM80.2188 101.23C79.7907 101.23 79.4261 101.113 79.125 100.88C78.8239 100.645 78.5938 100.305 78.4347 99.8602C78.2756 99.4133 78.196 98.8735 78.196 98.2409C78.196 97.6121 78.2756 97.0752 78.4347 96.6301C78.5956 96.1831 78.8267 95.8422 79.1278 95.6074C79.4309 95.3706 79.7945 95.2523 80.2188 95.2523C80.643 95.2523 81.0057 95.3706 81.3068 95.6074C81.6098 95.8422 81.8409 96.1831 82 96.6301C82.161 97.0752 82.2415 97.6121 82.2415 98.2409C82.2415 98.8735 82.1619 99.4133 82.0028 99.8602C81.8438 100.305 81.6136 100.645 81.3125 100.88C81.0114 101.113 80.6468 101.23 80.2188 101.23ZM80.2188 100.605C80.643 100.605 80.9725 100.4 81.2074 99.9909C81.4422 99.5818 81.5597 98.9985 81.5597 98.2409C81.5597 97.7371 81.5057 97.3081 81.3977 96.954C81.2917 96.5998 81.1383 96.3299 80.9375 96.1443C80.7386 95.9587 80.4991 95.8659 80.2188 95.8659C79.7983 95.8659 79.4697 96.0733 79.233 96.4881C78.9962 96.9009 78.8778 97.4852 78.8778 98.2409C78.8778 98.7447 78.9309 99.1727 79.0369 99.525C79.143 99.8773 79.2955 100.145 79.4943 100.329C79.6951 100.513 79.9366 100.605 80.2188 100.605ZM71.6477 105.332V111.15H70.9432V106.07H70.9091L69.4886 107.014V106.298L70.9432 105.332H71.6477ZM75.3665 105.332V111.15H74.6619V106.07H74.6278L73.2074 107.014V106.298L74.6619 105.332H75.3665ZM78.9375 111.23C78.5095 111.23 78.1449 111.113 77.8438 110.88C77.5426 110.645 77.3125 110.305 77.1534 109.86C76.9943 109.413 76.9148 108.873 76.9148 108.241C76.9148 107.612 76.9943 107.075 77.1534 106.63C77.3144 106.183 77.5455 105.842 77.8466 105.607C78.1496 105.371 78.5133 105.252 78.9375 105.252C79.3617 105.252 79.7244 105.371 80.0256 105.607C80.3286 105.842 80.5597 106.183 80.7188 106.63C80.8797 107.075 80.9602 107.612 80.9602 108.241C80.9602 108.873 80.8807 109.413 80.7216 109.86C80.5625 110.305 80.3324 110.645 80.0312 110.88C79.7301 111.113 79.3655 111.23 78.9375 111.23ZM78.9375 110.605C79.3617 110.605 79.6913 110.4 79.9261 109.991C80.161 109.582 80.2784 108.998 80.2784 108.241C80.2784 107.737 80.2244 107.308 80.1165 106.954C80.0104 106.6 79.857 106.33 79.6562 106.144C79.4574 105.959 79.2178 105.866 78.9375 105.866C78.517 105.866 78.1884 106.073 77.9517 106.488C77.715 106.901 77.5966 107.485 77.5966 108.241C77.5966 108.745 77.6496 109.173 77.7557 109.525C77.8617 109.877 78.0142 110.145 78.2131 110.329C78.4138 110.513 78.6553 110.605 78.9375 110.605Z" fill="#00FFFF"/>
<path d="M57.5 103.5C82.9051 103.5 103.5 82.9051 103.5 57.5C103.5 32.0949 82.9051 11.5 57.5 11.5C32.0949 11.5 11.5 32.0949 11.5 57.5C11.5 82.9051 32.0949 103.5 57.5 103.5Z" stroke="#FF2957" stroke-width="2" stroke-dasharray="10 5"/>
</svg>
