<svg viewBox="0 0 115 115" fill="none" xmlns="http://www.w3.org/2000/svg">
<path d="M57.5 5.75L103.5 34.5V80.5L57.5 109.25L11.5 80.5V34.5L57.5 5.75Z" fill="#1A1A2E" stroke="#FFFFFF" stroke-width="2"/>
<path d="M57.5 11.5L97.75 34.5V80.5L57.5 103.5L17.25 80.5V34.5L57.5 11.5Z" stroke="#FF2957" stroke-width="2"/>
<path d="M57.5 17.25L92 34.5V80.5L57.5 97.75L23 80.5V34.5L57.5 17.25Z" stroke="#00FFFF" stroke-width="2"/>
<path d="M23 57.5H46M69 57.5H92M57.5 23V46M57.5 69V92" stroke="#FFFFFF" stroke-width="2"/>
<path d="M57.5 74.75C67.0269 74.75 74.75 67.0269 74.75 57.5C74.75 47.9731 67.0269 40.25 57.5 40.25C47.9731 40.25 40.25 47.9731 40.25 57.5C40.25 67.0269 47.9731 74.75 57.5 74.75Z" stroke="#FFFFFF" stroke-width="2"/>
<path d="M48.875 48.875L66.125 66.125M48.875 66.125L66.125 48.875" stroke="#00FFFF" stroke-width="2"/>
<path d="M57.5 69C63.8513 69 69 63.8513 69 57.5C69 51.1487 63.8513 46 57.5 46C51.1487 46 46 51.1487 46 57.5C46 63.8513 51.1487 69 57.5 69Z" fill="#FF2957" fill-opacity="0.2"/>
<path d="M57.5 63.25C60.6756 63.25 63.25 60.6756 63.25 57.5C63.25 54.3244 60.6756 51.75 57.5 51.75C54.3244 51.75 51.75 54.3244 51.75 57.5C51.75 60.6756 54.3244 63.25 57.5 63.25Z" stroke="#FFFFFF" stroke-width="1.5" fill="#1A1A2E"/>
<path d="M34.5 57.5L57.5 34.5L80.5 57.5L57.5 80.5L34.5 57.5Z" stroke="#FFFFFF" stroke-width="1"/>
<circle cx="57.5" cy="57.5" r="2.875" fill="#FFFFFF"/>
</svg>