<svg width="115" height="115" viewBox="0 0 115 115" fill="none" xmlns="http://www.w3.org/2000/svg">
<path d="M57.5 5.75L103.5 34.5V80.5L57.5 109.25L11.5 80.5V34.5L57.5 5.75Z" fill="#1A1A2E" stroke="#FF2957" stroke-width="2"/>
<path d="M23 57.5H46M69 57.5H92M57.5 23V46M57.5 69V92" stroke="#FF2957"/>
<path d="M57.5 74.75C67.0269 74.75 74.75 67.0269 74.75 57.5C74.75 47.9731 67.0269 40.25 57.5 40.25C47.9731 40.25 40.25 47.9731 40.25 57.5C40.25 67.0269 47.9731 74.75 57.5 74.75Z" stroke="#FF2957" stroke-width="2"/>
<path d="M48.875 48.875L66.125 66.125L48.875 48.875ZM48.875 66.125L66.125 48.875L48.875 66.125Z" fill="black"/>
<path d="M48.875 48.875L66.125 66.125M48.875 66.125L66.125 48.875" stroke="#00FFFF" stroke-width="2"/>
<path d="M57.5 80.5C70.2025 80.5 80.5 70.2025 80.5 57.5C80.5 44.7975 70.2025 34.5 57.5 34.5C44.7975 34.5 34.5 44.7975 34.5 57.5C34.5 70.2025 44.7975 80.5 57.5 80.5Z" stroke="#FF2957" stroke-opacity="0.133333" stroke-width="10"/>
</svg>
