<svg viewBox="0 0 115 115" fill="none" xmlns="http://www.w3.org/2000/svg">
<path d="M57.5 109.25C86.0807 109.25 109.25 86.0807 109.25 57.5C109.25 28.9193 86.0807 5.75 57.5 5.75C28.9193 5.75 5.75 28.9193 5.75 57.5C5.75 86.0807 28.9193 109.25 57.5 109.25Z" fill="#1A1A2E"/>
<path d="M57.5 5.75C71.225 5.75 84.3878 11.2022 94.0928 20.9072C103.798 30.6122 109.25 43.775 109.25 57.5H97.75C97.75 46.825 93.5094 36.5873 85.9611 29.039C78.4127 21.4906 68.175 17.25 57.5 17.25V5.75Z" fill="#fd63ce"/>
<path d="M109.25 57.5C109.25 71.225 103.798 84.3878 94.0928 94.0928C84.3878 103.798 71.225 109.25 57.5 109.25V97.75C68.175 97.75 78.4127 93.5094 85.9611 85.9611C93.5094 78.4127 97.75 68.175 97.75 57.5H109.25Z" fill="#00FFFF"/>
<path d="M57.5 86.25L28.75 57.5L57.5 28.75L86.25 57.5L57.5 86.25Z" stroke="#FF2957" stroke-width="2"/>
<path d="M57.5 80.5L34.5 57.5L57.5 34.5L80.5 57.5L57.5 80.5Z" stroke="#00FFFF"/>
<path d="M40.25 57.5H74.75M57.5 40.25V74.75" stroke="#fd63ce" stroke-width="3"/>
<path d="M57.5 66.125C62.2635 66.125 66.125 62.2635 66.125 57.5C66.125 52.7365 62.2635 48.875 57.5 48.875C52.7365 48.875 48.875 52.7365 48.875 57.5C48.875 62.2635 52.7365 66.125 57.5 66.125Z" fill="#00FFFF"/>
<path d="M57.4999 62.1C60.0404 62.1 62.0999 60.0405 62.0999 57.5C62.0999 54.9595 60.0404 52.9 57.4999 52.9C54.9594 52.9 52.8999 54.9595 52.8999 57.5C52.8999 60.0405 54.9594 62.1 57.4999 62.1Z" fill="#1A1A2E"/>
<path d="M34.4999 59.225C35.4526 59.225 36.2249 58.4527 36.2249 57.5C36.2249 56.5473 35.4526 55.775 34.4999 55.775C33.5472 55.775 32.7749 56.5473 32.7749 57.5C32.7749 58.4527 33.5472 59.225 34.4999 59.225Z" fill="#fd63ce"/>
<path d="M80.4999 59.225C81.4526 59.225 82.2249 58.4527 82.2249 57.5C82.2249 56.5473 81.4526 55.775 80.4999 55.775C79.5472 55.775 78.7749 56.5473 78.7749 57.5C78.7749 58.4527 79.5472 59.225 80.4999 59.225Z" fill="#fd63ce"/>
<path d="M57.4999 36.225C58.4526 36.225 59.2249 35.4527 59.2249 34.5C59.2249 33.5473 58.4526 32.775 57.4999 32.775C56.5472 32.775 55.7749 33.5473 55.7749 34.5C55.7749 35.4527 56.5472 36.225 57.4999 36.225Z" fill="#FF2957"/>
<path d="M57.4999 82.225C58.4526 82.225 59.2249 81.4527 59.2249 80.5C59.2249 79.5473 58.4526 78.775 57.4999 78.775C56.5472 78.775 55.7749 79.5473 55.7749 80.5C55.7749 81.4527 56.5472 82.225 57.4999 82.225Z" fill="#FF2957"/>
</svg>